<?xml version="1.0"?>
<svg xmlns="http://www.w3.org/2000/svg" xmlns:xlink="http://www.w3.org/1999/xlink" version="1.1" id="Capa_1" x="0px" y="0px" viewBox="0 0 512 512" style="enable-background:new 0 0 512 512;" xml:space="preserve" width="512px" height="512px" class=""><g><g>
	<g>
		<path d="M475.678,379.413c-1.735-5.684,0.645-12.404,3.931-14.617c1.655-1.11,4.195-0.297,7.551,2.427l20.363,16.527l3.92-25.932    c0.414-2.739,3.605-27.269-11.622-44.971c-6.336-7.365-18.319-16.146-39.431-16.146c-35.468,0-59.345,28.724-80.412,54.066    c-16.579,19.943-32.239,38.782-48.657,38.782c-6.801,0-18.612-1.317-21.306-10.142c-1.734-5.682,0.646-12.401,3.933-14.615    c1.654-1.11,4.195-0.297,7.551,2.427l20.363,16.527l3.92-25.932c0.414-2.739,3.605-27.269-11.622-44.971    c-6.335-7.365-18.319-16.146-39.431-16.146c-35.468,0-59.346,28.724-80.412,54.066c-16.578,19.943-32.238,38.782-48.657,38.782    c-6.801,0-18.611-1.317-21.306-10.142c-1.734-5.682,0.646-12.401,3.932-14.615c1.655-1.11,4.194-0.297,7.551,2.427l20.363,16.527    l3.92-25.932c0.414-2.739,3.605-27.269-11.622-44.971c-6.336-7.365-18.319-16.146-39.431-16.146    c-35.468,0-59.345,28.724-80.412,54.066C32.079,370.714,16.418,389.552,0,389.552v29.999c30.492,0,51.454-25.217,71.727-49.603    c18.486-22.239,35.948-43.245,57.343-43.245c11.705,0,15.406,4.24,16.622,5.634c0.542,0.619,1.027,1.288,1.462,1.995    c-5.451,0.447-10.75,2.301-15.623,5.582c-14.471,9.745-21.291,30.491-15.866,48.258c6,19.648,24.69,31.38,49.997,31.38    c30.492,0,51.455-25.217,71.727-49.603c18.486-22.239,35.948-43.245,57.343-43.245c11.705,0,15.406,4.24,16.622,5.634    c0.542,0.619,1.027,1.288,1.462,1.995c-5.451,0.447-10.75,2.301-15.623,5.583c-14.47,9.745-21.291,30.49-15.866,48.257    c6,19.648,24.69,31.38,49.997,31.38c30.492,0,51.454-25.217,71.727-49.603c18.486-22.239,35.948-43.245,57.343-43.245    c11.705,0,15.406,4.24,16.622,5.634c0.542,0.619,1.027,1.288,1.462,1.995c-5.451,0.447-10.75,2.301-15.623,5.582    c-14.471,9.745-21.291,30.491-15.867,48.258c6,19.648,24.69,31.38,49.997,31.38h14.999v-29.999h-15    C490.184,389.555,478.373,388.238,475.678,379.413z" data-original="#000000" class="active-path" data-old_color="#000000" fill="#FFFFFF"/>
	</g>
</g><g>
	<g>
		<path d="M475.678,175.158c-1.734-5.681,0.646-12.401,3.932-14.614c1.657-1.114,4.195-0.298,7.551,2.426l20.363,16.526l3.92-25.931    c0.414-2.739,3.605-27.269-11.622-44.971c-6.336-7.365-18.319-16.145-39.431-16.145c-35.468,0-59.345,28.724-80.412,54.066    c-16.579,19.943-32.239,38.782-48.657,38.782c-6.801,0-18.612-1.317-21.306-10.142c-1.734-5.681,0.646-12.401,3.933-14.613    c1.654-1.114,4.195-0.298,7.552,2.427l20.363,16.525l3.92-25.931c0.414-2.739,3.605-27.269-11.622-44.97    c-6.335-7.365-18.319-16.146-39.431-16.146c-35.468,0-59.346,28.724-80.412,54.066c-16.578,19.943-32.238,38.782-48.657,38.782    c-6.801,0-18.611-1.317-21.306-10.142c-1.734-5.681,0.646-12.401,3.932-14.614c1.656-1.114,4.196-0.298,7.551,2.426l20.363,16.526    l3.92-25.931c0.414-2.739,3.605-27.269-11.622-44.971c-6.336-7.365-18.319-16.145-39.431-16.145    c-35.468,0-59.345,28.724-80.412,54.066C32.079,166.459,16.418,185.298,0,185.298v29.999c30.492,0,51.454-25.217,71.727-49.604    c18.486-22.239,35.948-43.245,57.343-43.245c11.705,0,15.406,4.24,16.622,5.634c0.542,0.619,1.027,1.289,1.462,1.995    c-5.451,0.448-10.75,2.301-15.623,5.583c-14.471,9.745-21.291,30.491-15.866,48.257c6,19.648,24.69,31.38,49.997,31.38    c30.492,0,51.455-25.217,71.727-49.603c18.486-22.239,35.948-43.245,57.343-43.245c11.705,0,15.406,4.24,16.622,5.634    c0.542,0.619,1.027,1.289,1.462,1.995c-5.451,0.448-10.75,2.301-15.623,5.583c-14.471,9.745-21.291,30.491-15.866,48.257    c6,19.648,24.69,31.38,49.997,31.38c30.492,0,51.454-25.217,71.727-49.603c18.486-22.239,35.948-43.245,57.343-43.245    c11.705,0,15.406,4.24,16.622,5.634c0.542,0.619,1.027,1.289,1.462,1.995c-5.451,0.448-10.75,2.301-15.623,5.583    c-14.471,9.745-21.291,30.491-15.867,48.257c6,19.648,24.69,31.38,49.997,31.38h14.999V185.3h-15    C490.184,185.3,478.373,183.983,475.678,175.158z" data-original="#000000" class="active-path" data-old_color="#000000" fill="#FFFFFF"/>
	</g>
</g></g> </svg>
