<?xml version="1.0" encoding="utf-8"?>
<svg id="master-artboard" viewBox="0 0 313.38 209.37" xmlns="http://www.w3.org/2000/svg" width="313.3800048828125px" height="209.3699951171875px"><rect id="ee-background" x="0" y="0" width="313.3800048828125" height="209.3699951171875" style="fill: white; fill-opacity: 0; pointer-events: none;"/><defs><pattern id="Új_mintázatos_színtár_1" data-name="Új mintázatos színtár 1" width="38.25" height="55" patternTransform="translate(-8.48 -3.19) scale(0.74)" patternUnits="userSpaceOnUse" viewBox="0 0 38.24 55"><path d="M 0 0 H 38.25 V 55 H 0 V 0 Z" class="cls-1" style="fill: none;"/><path d="M 0 0 H 38.25 V 55 H 0 V 0 Z" class="cls-2" style="fill: rgb(255, 255, 255);"/></pattern><pattern id="Új_mintázatos_színtár_1-3" data-name="Új mintázatos színtár 1" width="38.25" height="55" patternTransform="translate(5.39)" patternUnits="userSpaceOnUse" viewBox="0 0 38.24 55"><path d="M 0 0 H 38.25 V 55 H 0 V 0 Z" class="cls-1" style="fill: none;"/><path d="M 0 0 H 38.25 V 55 H 0 V 0 Z" class="cls-2" style="fill: rgb(255, 255, 255);"/></pattern><pattern id="Új_mintázatos_színtár_1-9" data-name="Új mintázatos színtár 1" width="38.25" height="55" patternTransform="translate(-11.3 -35.94) scale(1 1.16)" patternUnits="userSpaceOnUse" viewBox="0 0 38.24 55"><path d="M 0 0 H 38.25 V 55 H 0 V 0 Z" class="cls-1" style="fill: none;"/><path d="M 0 0 H 38.25 V 55 H 0 V 0 Z" class="cls-2" style="fill: rgb(255, 255, 255);"/></pattern><pattern id="Új_mintázatos_színtár_1-11" data-name="Új mintázatos színtár 1" width="38.25" height="55" patternTransform="translate(-13.03 5.53) scale(0.85)" patternUnits="userSpaceOnUse" viewBox="0 0 38.24 55"><path d="M 0 0 H 38.25 V 55 H 0 V 0 Z" class="cls-1" style="fill: none;"/><path d="M 0 0 H 38.25 V 55 H 0 V 0 Z" class="cls-2" style="fill: rgb(255, 255, 255);"/></pattern></defs><title>eezy_18</title><path d="M 313.380005 100.18 A 156.690002 92.150002 0 0 1 156.690002 192.330002 A 156.690002 92.150002 0 0 1 0 100.18 A 156.690002 92.150002 0 0 1 156.690002 8.029999 A 156.690002 92.150002 0 0 1 313.380005 100.18 Z" class="cls-3" style="fill: rgb(253, 170, 149); opacity: 0.2;"/><path class="cls-4" d="M210.62,153.23s-9.42-43.78-14.71-58.83c-4.33-12.37-9.52-18.12-16.63-18.13H152.44c-7.12,0-12.3,5.76-16.64,18.13-5.28,15-14.83,59.3-14.83,59.3a77,77,0,0,0,44.33,14.08c22.42,0,37.95-9.78,43.91-13.66C210.08,153.56,210.62,153.23,210.62,153.23Z" transform="translate(-11.3 -15.09)" style="fill: rgb(156, 92, 191);"/><path class="cls-5" d="M165.33,159.12a78.18,78.18,0,0,1-42.69-12.9c-1,4.57-1.65,7.48-1.65,7.48a77,77,0,0,0,44.34,14.08c22.42,0,37.95-9.78,43.91-13.66l1.38-.89s-.57-2.84-1.64-7.61A79,79,0,0,1,165.33,159.12Z" transform="translate(-11.3 -15.09)" style="fill: rgb(29, 27, 55); opacity: 0.1;"/><path class="cls-6" d="M137.57,162.56,124,219.89h6l.89-3.39,1.52-5.83,3.69-14.1,4.37-16.68,1.53-5.83,2.57-9.18C142.07,164.18,139.73,163.39,137.57,162.56Z" transform="translate(-11.3 -15.09)" style="fill: rgb(200, 225, 246);"/><path class="cls-2" d="M157.94,64.41v0S157.94,64.41,157.94,64.41Z" transform="translate(-11.3 -15.09)" style="fill: rgb(255, 255, 255);"/><path class="cls-2" d="M183.86,69.23c-11.36-3.6-11-4.82-11-4.82s.11,6.42-7.42,6.42v0h-.16v0c-7.18,0-7.37-6.07-7.38-6.39,0,.21-.61,1.52-11,4.79-11.36,3.6-13.88,16.46-13.88,16.46,8.72,0,9.22,16.82,9.22,16.82v14.54h46.16V102.51s.49-16.82,9.21-16.82c0-.09,0-.18,0-.27C197.25,83.58,194.27,72.53,183.86,69.23Z" transform="translate(-11.3 -15.09)" style="fill: rgb(255, 255, 255);"/><path class="cls-3" d="M126.41,33.32h19.53V23.77l-1.25.07V32.1H108.54V28.39l-1.13.22V32.1H92.6c-1.67.46-3.31.93-4.94,1.42V44.2H60.76l-1.87,1,67.52.15ZM124.94,44.2H88.8v-11h36.14Z" transform="translate(-11.3 -15.09)" style="fill: rgb(253, 170, 149); opacity: 0.2;"/><path class="cls-7" d="M24.28,219.89H305.63a1.25,1.25,0,0,1,0,2.5H24.28a1.25,1.25,0,1,1,0-2.5Z" transform="translate(-11.3 -15.09)" style="fill: rgb(202, 204, 215);"/><path class="cls-7" d="M311,219.89h5.72a1.25,1.25,0,0,1,0,2.5H311a1.25,1.25,0,1,1,0-2.5Z" transform="translate(-11.3 -15.09)" style="fill: rgb(202, 204, 215);"/><path class="cls-7" d="M19.27,219.89a1.23,1.23,0,0,1,.88.36,1.28,1.28,0,0,1,.37.9,1.25,1.25,0,0,1-.37.88,1.26,1.26,0,0,1-2.14-.88,1.32,1.32,0,0,1,.37-.9A1.29,1.29,0,0,1,19.27,219.89Z" transform="translate(-11.3 -15.09)" style="fill: rgb(202, 204, 215);"/><path class="cls-3" d="M26.79,110.94H11.43c0,.38,0,.76,0,1.13H25.54V123.4H11.8c0,.25.06.84.09,1.1h14.9Z" transform="translate(-11.3 -15.09)" style="fill: rgb(253, 170, 149); opacity: 0.2;"/><path class="cls-3" d="M297.2,146.21v-12l-34.95.15v11.66Zm-33.93-10.93h32.91v9.9H263.27Z" transform="translate(-11.3 -15.09)" style="fill: rgb(253, 170, 149); opacity: 0.2;"/><path d="M 36.240002 101.949997 H 269.460003 V 107.979997 H 36.240002 V 101.949997 Z" class="cls-8" style="fill: rgb(172, 100, 90);"/><path d="M 58.959999 107.980003 H 247.200005 V 118.640003 H 58.959999 V 107.980003 Z" class="cls-7" style="fill: rgb(202, 204, 215);"/><path d="M 54.16999816894531 107.81999969482422 L 43.2599983215332 204.8000030517578 L 48.20000076293945 204.8000030517578 L 64.02999877929688 107.83000183105469 L 54.16999816894531 107.81999969482422 Z" class="cls-9" style="fill: rgb(163, 172, 180);"/><path d="M 252.22000122070312 107.81999969482422 L 263.1300048828125 204.8000030517578 L 258.19000244140625 204.8000030517578 L 242.36000061035156 107.83000183105469 L 252.22000122070312 107.81999969482422 Z" class="cls-9" style="fill: rgb(163, 172, 180);"/><path d="M 101.94000244140625 168.22999572753906 L 102.47000122070312 160.0500030517578 L 84.44000244140625 159.8699951171875 L 84.44000244140625 159.86000061035156 L 84.2300033569336 159.8699951171875 L 84.01000213623047 159.86000061035156 L 84.01000213623047 159.8699951171875 L 65.98999786376953 160.0500030517578 L 66.51000213623047 168.22999572753906 L 101.94000244140625 168.22999572753906 Z" class="cls-10" style="fill: rgb(53, 69, 87);"/><path d="M 68.37000274658203 196.92999267578125 L 68.87999725341797 204.91000366210938 L 84.01000213623047 204.91000366210938 L 84.44000244140625 204.91000366210938 L 99.58000183105469 204.91000366210938 L 100.08999633789062 196.92999267578125 L 68.37000274658203 196.92999267578125 Z" class="cls-10" style="fill: rgb(53, 69, 87);"/><path class="cls-11" d="M77.8,183.09,79.67,212h31.74l1.87-28.94Zm31.88,27.77h-.28l-1.9-4,2-4.25,1.2,2.5-.26,4Zm-5.89,0-1.9-4,2-4.25,2,4.25-1.91,4Zm-5.61,0-1.91-4,2-4.25,2,4.25-1.9,4Zm-5.62,0-1.9-4,2-4.25,2,4.25-1.9,4Zm-5.61,0-1.9-4,2-4.25,2,4.25-1.91,4Zm-5.62,0-.72-1.51L80.33,205l1.14-2.38,2,4.25-1.9,4Zm2.18-15.66-2,4.25-1.73-3.62-.07-1.12,1.8-3.77Zm-1.27-5.86,2-4.25,2,4.25-2,4.26Zm2,7.46,2,4.25-2,4.25-2-4.25Zm.77-1.6,2-4.26,2,4.26-2,4.25Zm2.8-5.86,2-4.25,2,4.25-2,4.26Zm2,7.46,2,4.25-2,4.25-2-4.25Zm.77-1.6,2-4.26,2,4.26-2,4.25Zm2.81-5.86,2-4.25,2,4.25-2,4.26Zm2,7.46,2,4.25-2,4.25-2-4.25Zm.76-1.6,2-4.25,2,4.25-2,4.25Zm2.81-5.86,2-4.25,2,4.25-2,4.26Zm2,7.46,2,4.25-2,4.25-2-4.25Zm.77-1.6,2-4.26,2,4.26-2,4.25Zm4.84,1.6,2,4.25-2,4.25-2-4.25Zm-2-7.46,2-4.25,2,4.25-2,4.26Zm3.18-5.08h3.34l-1.67,3.48Zm-3.94,3.48-1.68-3.48h3.35Zm-5.62,0-1.67-3.48H100Zm-5.61,0L91,184.26h3.34Zm-5.61,0-1.68-3.48h3.35Zm-5.62,0-1.67-3.48h3.35Zm-.76,1.6-1.23,2.55L79.1,186Zm0,11.71-.56,1.16L80,199.53Zm3.57,7.45,1.13,2.36H83.15Zm5.61,0L91,210.86H88.76Zm5.62,0,1.13,2.36H94.37Zm5.61,0,1.13,2.36H100Zm5.61,0,1.14,2.36H105.6Zm3.58-7.45.8-1.68-.19,3Zm1-5.38-1.81,3.78-2-4.25,2-4.26,1.86,3.89Zm-1-6.33,1.67-3.49-.39,6.16Z" transform="translate(-11.3 -15.09)" style="fill: rgb(200, 203, 203);"/><g class="cls-12" style="opacity: 0.2;"><path class="cls-13" d="M90.6,167H83.17a3.34,3.34,0,0,1-3.33-3.33v-7.29A3.34,3.34,0,0,1,83.17,153H90.6a3.33,3.33,0,0,1,3.33,3.33v7.29A3.33,3.33,0,0,1,90.6,167Zm-7.43-13a2.33,2.33,0,0,0-2.33,2.33v7.29A2.33,2.33,0,0,0,83.17,166H90.6a2.33,2.33,0,0,0,2.34-2.33v-7.29A2.33,2.33,0,0,0,90.6,154Z" transform="translate(-11.3 -15.09)" style="fill: rgb(253, 170, 149);"/><path class="cls-13" d="M86.82,164.55A4.55,4.55,0,1,1,91.37,160,4.55,4.55,0,0,1,86.82,164.55Zm0-8.1A3.55,3.55,0,1,0,90.37,160,3.55,3.55,0,0,0,86.82,156.45Z" transform="translate(-11.3 -15.09)" style="fill: rgb(253, 170, 149);"/></g><g class="cls-12" style="opacity: 0.2;"><path class="cls-13" d="M109.74,167h-7.42A3.34,3.34,0,0,1,99,163.66v-7.29a3.34,3.34,0,0,1,3.34-3.33h7.42a3.34,3.34,0,0,1,3.34,3.33v7.29A3.34,3.34,0,0,1,109.74,167Zm-7.42-13a2.33,2.33,0,0,0-2.34,2.33v7.29a2.33,2.33,0,0,0,2.34,2.33h7.42a2.33,2.33,0,0,0,2.34-2.33v-7.29a2.33,2.33,0,0,0-2.34-2.33Z" transform="translate(-11.3 -15.09)" style="fill: rgb(253, 170, 149);"/><path class="cls-13" d="M106,164.55a4.55,4.55,0,1,1,4.55-4.55A4.55,4.55,0,0,1,106,164.55Zm0-8.1a3.55,3.55,0,1,0,3.55,3.55A3.55,3.55,0,0,0,106,156.45Z" transform="translate(-11.3 -15.09)" style="fill: rgb(253, 170, 149);"/></g><g class="cls-12" style="opacity: 0.2;"><path d="M 83.750002 128.539993 A 0.99 0.99 0 0 1 82.760002 129.529993 A 0.99 0.99 0 0 1 81.770002 128.539993 A 0.99 0.99 0 0 1 82.760002 127.549993 A 0.99 0.99 0 0 1 83.750002 128.539993 Z" class="cls-13" style="fill: rgb(253, 170, 149);"/><path d="M 90.210001 128.539993 A 0.99 0.99 0 0 1 89.220001 129.529993 A 0.99 0.99 0 0 1 88.230001 128.539993 A 0.99 0.99 0 0 1 89.220001 127.549993 A 0.99 0.99 0 0 1 90.210001 128.539993 Z" class="cls-13" style="fill: rgb(253, 170, 149);"/><path d="M 86.850001 131.639999 A 0.99 0.99 0 0 1 85.860001 132.629999 A 0.99 0.99 0 0 1 84.870001 131.639999 A 0.99 0.99 0 0 1 85.860001 130.649999 A 0.99 0.99 0 0 1 86.850001 131.639999 Z" class="cls-13" style="fill: rgb(253, 170, 149);"/></g><g class="cls-12" style="opacity: 0.2;"><path d="M 174.719996 165.600006 A 0.99 0.99 0 0 1 173.729996 166.590006 A 0.99 0.99 0 0 1 172.739996 165.600006 A 0.99 0.99 0 0 1 173.729996 164.610006 A 0.99 0.99 0 0 1 174.719996 165.600006 Z" class="cls-13" style="fill: rgb(253, 170, 149);"/><path d="M 168.260004 165.600006 A 0.99 0.99 0 0 1 167.270004 166.590006 A 0.99 0.99 0 0 1 166.280004 165.600006 A 0.99 0.99 0 0 1 167.270004 164.610006 A 0.99 0.99 0 0 1 168.260004 165.600006 Z" class="cls-13" style="fill: rgb(253, 170, 149);"/><path d="M 171.620005 162.490005 A 0.99 0.99 0 0 1 170.630005 163.480006 A 0.99 0.99 0 0 1 169.640005 162.490005 A 0.99 0.99 0 0 1 170.630005 161.500005 A 0.99 0.99 0 0 1 171.620005 162.490005 Z" class="cls-13" style="fill: rgb(253, 170, 149);"/></g><path d="M 110.000002 54.130001 A 0.99 0.99 0 0 1 109.010002 55.120001 A 0.99 0.99 0 0 1 108.020002 54.130001 A 0.99 0.99 0 0 1 109.010002 53.140001 A 0.99 0.99 0 0 1 110.000002 54.130001 Z" class="cls-14" style="fill: rgb(253, 170, 149); opacity: 0.3;"/><path d="M 106.900004 51.029999 A 0.99 0.99 0 0 1 105.910004 52.019999 A 0.99 0.99 0 0 1 104.920004 51.029999 A 0.99 0.99 0 0 1 105.910004 50.039999 A 0.99 0.99 0 0 1 106.900004 51.029999 Z" class="cls-14" style="fill: rgb(253, 170, 149); opacity: 0.3;"/><path d="M 284.880015 137.949997 A 0.99 0.99 0 0 1 283.890015 138.939997 A 0.99 0.99 0 0 1 282.900015 137.949997 A 0.99 0.99 0 0 1 283.890015 136.959997 A 0.99 0.99 0 0 1 284.880015 137.949997 Z" class="cls-14" style="fill: rgb(253, 170, 149); opacity: 0.3;"/><path d="M 278.419993 137.949997 A 0.99 0.99 0 0 1 277.429993 138.939997 A 0.99 0.99 0 0 1 276.439993 137.949997 A 0.99 0.99 0 0 1 277.429993 136.959997 A 0.99 0.99 0 0 1 278.419993 137.949997 Z" class="cls-14" style="fill: rgb(253, 170, 149); opacity: 0.3;"/><path class="cls-10" d="M173,133.64l22.36-4.9s8.77-3.29,16.45,7.67,26.6,36.1,26.6,36.1l-15,12.79-14.61-19.37v42.28H192.38l-4-48.49H156.93s-14.61.37-14.61-11.33V133.64Z" transform="translate(-11.3 -15.09)" style="fill: rgb(53, 69, 87);"/><path class="cls-15" d="M205.55,208.21v6.4s1,3.42-3.57,2.35a29.14,29.14,0,0,1-8-3.2v-5.55Z" transform="translate(-11.3 -15.09)" style="fill: rgb(114, 214, 254);"/><path class="cls-15" d="M235.62,175l4.2,4.83s3,1.94-1.16,4.11a29.4,29.4,0,0,1-8.11,2.8l-3.64-4.19Z" transform="translate(-11.3 -15.09)" style="fill: rgb(114, 214, 254);"/><path d="M 197.52000427246094 150.83999633789062 L 184.52000427246094 134.57000732421875 L 151.25999450683594 144.6300048828125 L 177.05999755859375 144.6300048828125 L 197.52000427246094 170.8000030517578 L 197.52000427246094 150.83999633789062 Z" class="cls-16" style="opacity: 0.3; fill: rgb(13, 8, 15);"/><path class="cls-17" d="M194,223.53l26.61-.17a2.87,2.87,0,0,0,2.85-2.89h0a2.85,2.85,0,0,0-1.94-2.7l-13.2-4.51h-14.3Z" transform="translate(-11.3 -15.09)" style="fill: rgb(1, 93, 167);"/><path class="cls-10" d="M221.18,224.09l-27.13.38,0-1.93,29.06-.4h0A1.92,1.92,0,0,1,221.18,224.09Z" transform="translate(-11.3 -15.09)" style="fill: rgb(53, 69, 87);"/><path class="cls-17" d="M236.13,194.44l21.28-16a2.87,2.87,0,0,0,.58-4h0a2.88,2.88,0,0,0-3.17-1l-13.29,4.23L230,186.17Z" transform="translate(-11.3 -15.09)" style="fill: rgb(1, 92, 167);"/><path class="cls-10" d="M258.28,178.73,236.7,195.18l-1.17-1.54L258.65,176h0A1.94,1.94,0,0,1,258.28,178.73Z" transform="translate(-11.3 -15.09)" style="fill: rgb(53, 69, 87);"/><path class="cls-18" d="M152.85,42.67a3.55,3.55,0,1,1-7,.5,3.55,3.55,0,1,1,7-.5Z" transform="translate(-11.3 -15.09)" style="fill: rgb(217, 119, 94);"/><path class="cls-18" d="M177.25,42.67a3.55,3.55,0,1,0,7,.5,3.55,3.55,0,1,0-7-.5Z" transform="translate(-11.3 -15.09)" style="fill: rgb(217, 119, 94);"/><path class="cls-19" d="M180.9,36.61V29s-3.19-6-16.51-6c-11.61,0-14.55,7.63-15.11,6.66l-.12-5.49v13l0,0v7.71c0,9.49,7.17,17.25,15.94,17.25S181,54.32,181,44.84V36.52Z" transform="translate(-11.3 -15.09)" style="fill: rgb(241, 145, 119); fill-rule: evenodd;"/><path class="cls-18" d="M165.07,62.09a14.87,14.87,0,0,1-7.13-1.85v4.17a6.41,6.41,0,0,0,6.41,6.4h2.26a6.41,6.41,0,0,0,6.4-6.4V59.76A14.87,14.87,0,0,1,165.07,62.09Z" transform="translate(-11.3 -15.09)" style="fill: rgb(217, 119, 94);"/><path class="cls-20" d="M171,52.06a7.25,7.25,0,0,1-1.38.79,10.24,10.24,0,0,1-1.5.52,13.26,13.26,0,0,1-3.14.41h.22a12.75,12.75,0,0,1-3.14-.4,10.24,10.24,0,0,1-1.5-.52,7.25,7.25,0,0,1-1.38-.79l0-.08a15.68,15.68,0,0,0,2.95.72,19.42,19.42,0,0,0,3,.21H165a20.71,20.71,0,0,0,3-.21A15.68,15.68,0,0,0,171,52Z" transform="translate(-11.3 -15.09)" style="fill: url('#Új_mintázatos_színtár_1');"/><path class="cls-8" d="M176.86,20A16.76,16.76,0,0,0,165,15.09a17.77,17.77,0,0,0-8.76,2c-5.76,3.18-7.07,7.58-7.42,11a19.54,19.54,0,0,0-.08,2.76l.23,8h0l.85-5.95v0A1.7,1.7,0,0,1,152,31.3a11.47,11.47,0,0,0,3.46.51h7.61c6,0,10.53-.8,14-3.36a1.72,1.72,0,0,1,2.74,1c.24,1.12,1.17,9.4,1.17,9.4h0l.47-3.61a.53.53,0,0,0,0-.13c0-1.18,0-4.49-.06-5.23A14.36,14.36,0,0,0,176.86,20Z" transform="translate(-11.3 -15.09)" style="fill: rgb(172, 100, 90);"/><path class="cls-21" d="M135,86a14.1,14.1,0,0,1-1,3.11c-18.36,1.29-28.76-17.67-29.88-19.82-.24-.81-.26-1.55.18-1.83,4.08-2.1,5.33-7,3.13-11.28A8.51,8.51,0,0,0,96,52.24,8.05,8.05,0,0,0,92.2,56.5c-.18-.36-.46-.89-.87-1.69C90.08,52.38,88.6,50,86.75,51s-.9,3.1.57,6c7,13.54,10.13,18.66,12.31,21.67h0c4.81,8.54,15,22.27,30.94,23.12,0,0,.71.06,2.26.11a17.42,17.42,0,0,0,3.31-.19,8.86,8.86,0,0,0,5.79-3C141.29,94.2,139.55,87.47,135,86Zm-36.64-25a3.29,3.29,0,1,1,4.76.07A3.36,3.36,0,0,1,98.36,60.94Z" transform="translate(-11.3 -15.09)" style="fill: rgb(241, 145, 119);"/><path class="cls-21" d="M188.79,98.6a8.86,8.86,0,0,0,5.79,3,17.47,17.47,0,0,0,3.31.19c1.56,0,2.27-.11,2.27-.11,16-.85,26.13-14.58,30.94-23.12h0c2.17-3,5.32-8.13,12.3-21.67,1.48-2.86,2.42-5,.57-6s-3.32,1.43-4.57,3.86l-.88,1.69a8,8,0,0,0-3.81-4.26,8.52,8.52,0,0,0-11.38,3.93c-2.2,4.28-.94,9.18,3.14,11.28.43.28.42,1,.18,1.83-1.12,2.15-11.53,21.11-29.89,19.82a14.65,14.65,0,0,1-1-3.11C191.17,87.47,189.44,94.2,188.79,98.6ZM227.61,61a3.44,3.44,0,1,1,4.75-.07A3.37,3.37,0,0,1,227.61,61Z" transform="translate(-11.3 -15.09)" style="fill: rgb(241, 145, 119);"/><path d="M 164.989993 76.940002 A 10.81 10.81 0 0 1 154.179993 87.750003 A 10.81 10.81 0 0 1 143.369992 76.940002 A 10.81 10.81 0 0 1 154.179993 66.130002 A 10.81 10.81 0 0 1 164.989993 76.940002 Z" class="cls-15" style="fill: rgb(221, 160, 221);"/><path class="cls-22" d="M165.48,100.88A8.86,8.86,0,0,1,156.64,92h1a7.84,7.84,0,1,0,15.68,0h1A8.85,8.85,0,0,1,165.48,100.88Z" transform="translate(-11.3 -15.09)" style="fill: url('#Új_mintázatos_színtár_1-3');"/><path class="cls-22" d="M162.09,89.88a1,1,0,1,1-1-1A1,1,0,0,1,162.09,89.88Z" transform="translate(-11.3 -15.09)" style="fill: url('#Új_mintázatos_színtár_1-3');"/><path class="cls-22" d="M170.89,89.88a1,1,0,1,1-1-1A1,1,0,0,1,170.89,89.88Z" transform="translate(-11.3 -15.09)" style="fill: url('#Új_mintázatos_színtár_1-3');"/><path class="cls-10" d="M173.92,41.17h0a2.07,2.07,0,0,0-2,2.06.32.32,0,1,0,.63,0,1.43,1.43,0,0,1,2.85,0,.32.32,0,1,0,.63,0A2.07,2.07,0,0,0,173.92,41.17Z" transform="translate(-11.3 -15.09)" style="fill: rgb(53, 69, 87);"/><path class="cls-10" d="M156.49,41.11h0a2.07,2.07,0,0,0-2,2.06.32.32,0,1,0,.63,0,1.43,1.43,0,0,1,2.85,0,.32.32,0,0,0,.32.32.32.32,0,0,0,.32-.32A2.08,2.08,0,0,0,156.49,41.11Z" transform="translate(-11.3 -15.09)" style="fill: rgb(53, 69, 87);"/><path class="cls-7" d="M153.22,85.59a63.84,63.84,0,0,0,8.67,8.63c4.66,4,8.69,7.52,9.84,14.19a79.65,79.65,0,0,1,1.09,8.64h.5a75.54,75.54,0,0,0-1.1-8.73c-.89-5.16-3.44-8.45-6.67-11.51.83-.76,1.7-1.51,2.62-2.3a64.71,64.71,0,0,0,8.76-8.73c5-6.24,4.86-16.94,4.86-17l0-23.31h-.5l0,23.39c0,.9-.09,10.81-4.75,16.66a64.75,64.75,0,0,1-8.7,8.65c-.94.81-1.81,1.57-2.66,2.35-.94-.88-1.94-1.74-3-2.63a63.42,63.42,0,0,1-8.61-8.56c-4.8-6-4.7-16.44-4.69-16.54h0V45.42h-.5V68.81h0C148.41,69.75,148.52,79.69,153.22,85.59Z" transform="translate(-11.3 -15.09)" style="fill: rgb(202, 204, 215);"/><path class="cls-17" d="M149.13,45.7h0a1.53,1.53,0,0,1-1.54-1.53V41.11a1.53,1.53,0,0,1,1.54-1.53Z" transform="translate(-11.3 -15.09)" style="fill: rgb(221, 160, 221);"/><path class="cls-17" d="M181,45.7h0a1.53,1.53,0,0,0,1.53-1.53V41.11A1.53,1.53,0,0,0,181,39.58Z" transform="translate(-11.3 -15.09)" style="fill: rgb(221, 160, 221);"/><path class="cls-18" d="M135,86a14.1,14.1,0,0,1-1,3.11,13.3,13.3,0,0,1,5.24,11.59v0a7.07,7.07,0,0,0,2.73-2.12C141.29,94.2,139.55,87.47,135,86Z" transform="translate(-11.3 -15.09)" style="fill: rgb(217, 119, 94);"/><path class="cls-18" d="M195.72,86a14.65,14.65,0,0,0,1,3.11,13.3,13.3,0,0,0-5.24,11.59v0a7.15,7.15,0,0,1-2.73-2.12C189.44,94.2,191.17,87.47,195.72,86Z" transform="translate(-11.3 -15.09)" style="fill: rgb(217, 119, 94);"/><path class="cls-18" d="M169,56.35a6.4,6.4,0,0,1-1.8.67,8.22,8.22,0,0,1-1.91.21,8.33,8.33,0,0,1-1.91-.17,5.81,5.81,0,0,1-1.78-.73.18.18,0,0,1-.06-.23.19.19,0,0,1,.18-.08,11.7,11.7,0,0,0,1.78.36,13.2,13.2,0,0,0,1.79.07,11.87,11.87,0,0,0,1.79-.1,12.17,12.17,0,0,0,1.78-.35.18.18,0,0,1,.23.14A.2.2,0,0,1,169,56.35Z" transform="translate(-11.3 -15.09)" style="fill: rgb(217, 119, 94);"/><path class="cls-18" d="M167.57,47.66A1.36,1.36,0,0,1,167,49a3.08,3.08,0,0,1-1.9.6,3.13,3.13,0,0,1-1.91-.6,1.35,1.35,0,0,1-.57-1.35,1.88,1.88,0,0,0,.87,1.14,3.22,3.22,0,0,0,1.61.42,3.12,3.12,0,0,0,1.61-.42A1.88,1.88,0,0,0,167.57,47.66Z" transform="translate(-11.3 -15.09)" style="fill: rgb(217, 119, 94);"/><path class="cls-8" d="M158.59,39.06a4.19,4.19,0,0,0-2.16-.64,3.28,3.28,0,0,0-2,.65.21.21,0,0,0-.1.14.28.28,0,0,0,0,.18.24.24,0,0,0,.15.09.21.21,0,0,0,.17,0,3.32,3.32,0,0,1,3.62,0,.22.22,0,0,0,.31-.07A.22.22,0,0,0,158.59,39.06Z" transform="translate(-11.3 -15.09)" style="fill: rgb(172, 100, 90);"/><path class="cls-8" d="M176.28,39a4.18,4.18,0,0,0-2.15-.63,3.36,3.36,0,0,0-2,.64.19.19,0,0,0-.09.14.21.21,0,0,0,0,.17.23.23,0,0,0,.15.1.24.24,0,0,0,.16,0,3.35,3.35,0,0,1,3.63,0,.23.23,0,0,0,.31-.07A.22.22,0,0,0,176.28,39Z" transform="translate(-11.3 -15.09)" style="fill: rgb(172, 100, 90);"/><path d="M 269.4599914550781 84.44000244140625 L 269.4599914550781 93.16000366210938 L 263.6600036621094 93.16000366210938 L 248.02000427246094 93.16000366210938 L 226.35000610351562 93.16000366210938 L 226.35000610351562 84.44000244140625 L 266.5899963378906 84.44000244140625 L 269.4599914550781 84.44000244140625 Z" class="cls-10" style="fill: rgb(53, 69, 87);"/><path d="M 248.240005 93.160004 H 263.880006 V 101.950004 H 248.240005 V 93.160004 Z" class="cls-4" style="fill: rgb(0, 213, 123);"/><path d="M 248.24000549316406 93.16000366210938 L 248.24000549316406 101.94000244140625 L 226.16000366210938 101.94000244140625 L 226.16000366210938 93.16000366210938 L 226.57000732421875 93.16000366210938 L 248.24000549316406 93.16000366210938 Z" class="cls-23" style="fill: url('#Új_mintázatos_színtár_1-9');"/><path d="M 226.35000610351562 84.44000244140625 L 226.35000610351562 93.16000366210938 L 225.94000244140625 93.16000366210938 L 221.52999877929688 93.16000366210938 L 221.52999877929688 84.44000244140625 L 226.35000610351562 84.44000244140625 Z" class="cls-13" style="fill: rgb(253, 170, 149);"/><path d="M 226.16000366210938 93.16000366210938 L 226.16000366210938 101.94000244140625 L 207.11000061035156 101.94000244140625 L 207.11000061035156 93.16000366210938 L 214.57000732421875 93.16000366210938 L 221.75999450683594 93.16000366210938 L 226.16000366210938 93.16000366210938 Z" class="cls-4" style="fill: rgb(0, 213, 123);"/><path d="M 214.339996 84.440002 H 221.539996 V 93.160003 H 214.339996 V 84.440002 Z" class="cls-10" style="fill: rgb(53, 69, 87);"/><path d="M 266.82000732421875 72.8499984741211 L 266.82000732421875 76.63999938964844 L 264.67999267578125 76.63999938964844 L 216.52000427246094 76.63999938964844 L 216.52000427246094 72.8499984741211 L 266.82000732421875 72.8499984741211 Z" class="cls-2" style="fill: rgb(255, 255, 255);"/><path class="cls-6" d="M276,91.74c.2,2.82-1.25,5.51-3.17,7.79a28.8,28.8,0,0,1-4.1,3.92,36.11,36.11,0,0,1-4.19,2.9,13,13,0,0,0-.54-6.82,12.56,12.56,0,0,0-2.41-4,15.47,15.47,0,0,0-4.95-3.78Z" transform="translate(-11.3 -15.09)" style="fill: rgb(200, 225, 246);"/><path class="cls-17" d="M256.62,91.74a15.47,15.47,0,0,1,4.95,3.78H227.82V91.73Z" transform="translate(-11.3 -15.09)" style="fill: rgb(2, 138, 253);"/><path class="cls-9" d="M264,99.54H227.86v-4h33.72A12.56,12.56,0,0,1,264,99.54Z" transform="translate(-11.3 -15.09)" style="fill: rgb(163, 172, 180);"/><path d="M 221.360001 66.139999 H 263.330002 V 72.849999 H 221.360001 V 66.139999 Z" class="cls-24" style="fill: rgb(186, 85, 211);"/><path d="M 223.380005 66.139999 H 224.430005 V 72.859999 H 223.380005 V 66.139999 Z" class="cls-4" style="fill: rgb(0, 213, 123);"/><path d="M 225.190002 66.139999 H 226.240002 V 72.859999 H 225.190002 V 66.139999 Z" class="cls-4" style="fill: rgb(0, 213, 123);"/><path d="M 227 66.139999 H 228.05 V 72.859999 H 227 V 66.139999 Z" class="cls-4" style="fill: rgb(0, 213, 123);"/><path d="M 256.200012 66.139999 H 257.250012 V 72.859999 H 256.200012 V 66.139999 Z" class="cls-4" style="fill: rgb(0, 213, 123);"/><path d="M 258.01001 66.139999 H 259.06001 V 72.859999 H 258.01001 V 66.139999 Z" class="cls-4" style="fill: rgb(0, 213, 123);"/><path d="M 259.820007 66.139999 H 260.870007 V 72.859999 H 259.820007 V 66.139999 Z" class="cls-4" style="fill: rgb(0, 213, 123);"/><path class="cls-10" d="M114.63,117.24v-.8a8.15,8.15,0,0,0-8.12-8.12H93.45a8.14,8.14,0,0,0-8.11,8.12v.8Z" transform="translate(-11.3 -15.09)" style="fill: rgb(53, 69, 87);"/><path d="M 81.429997 67.309998 H 95.529998 A 1.05 1.05 0 0 1 96.579998 68.359998 V 98.379997 A 1.05 1.05 0 0 1 95.529998 99.429996 H 81.429997 A 1.05 1.05 0 0 1 80.379997 98.379997 V 68.359998 A 1.05 1.05 0 0 1 81.429997 67.309998 Z" class="cls-25" style="fill: url('#Új_mintázatos_színtár_1-11');"/><path class="cls-15" d="M81.71,69.15H95.26a.53.53,0,0,1,.53.53V96.52a.53.53,0,0,1-.53.53H81.71a.52.52,0,0,1-.52-.52V69.67A.52.52,0,0,1,81.71,69.15Z" style="fill: rgb(114, 214, 254);"/><path class="cls-9" d="M105.4,87.11H94v-.89a.7.7,0,0,1,.71-.7h9.94a.7.7,0,0,1,.71.7Z" transform="translate(-11.3 -15.09)" style="fill: rgb(163, 172, 180);"/><path d="M 82.739998 72.010002 H 94.099998 V 95.970001 H 82.739998 V 72.010002 Z" class="cls-2" style="fill: rgb(255, 255, 255);"/><path d="M 84.329997 71.209999 A 0.38 0.38 0 0 1 83.949997 71.589999 A 0.38 0.38 0 0 1 83.569997 71.209999 A 0.38 0.38 0 0 1 83.949997 70.829999 A 0.38 0.38 0 0 1 84.329997 71.209999 Z" class="cls-26" style="fill: rgb(253, 137, 87);"/><path d="M 85.460002 71.209999 A 0.38 0.38 0 0 1 85.080002 71.589999 A 0.38 0.38 0 0 1 84.700002 71.209999 A 0.38 0.38 0 0 1 85.080002 70.829999 A 0.38 0.38 0 0 1 85.460002 71.209999 Z" class="cls-2" style="fill: rgb(255, 255, 255);"/><path d="M 86.579997 71.209999 A 0.38 0.38 0 0 1 86.199997 71.589999 A 0.38 0.38 0 0 1 85.819997 71.209999 A 0.38 0.38 0 0 1 86.199997 70.829999 A 0.38 0.38 0 0 1 86.579997 71.209999 Z" class="cls-24" style="fill: rgb(113, 229, 173);"/><path d="M 84.259997 73.970001 H 92.489997 A 0.63 0.63 0 0 1 93.119997 74.600001 V 82.640001 A 0.63 0.63 0 0 1 92.489997 83.270001 H 84.259997 A 0.63 0.63 0 0 1 83.629997 82.640001 V 74.600001 A 0.63 0.63 0 0 1 84.259997 73.970001 Z" class="cls-17" style="fill: rgb(2, 138, 253);"/><path class="cls-7" d="M104.42,89.7a.63.63,0,0,0-.63-.63H95.57a.63.63,0,0,0-.63.63v1.36h9.48Z" transform="translate(-11.3 -15.09)" style="fill: rgb(202, 204, 215);"/><path d="M 85.049997 78.25 H 91.959996 A 0.53 0.53 0 0 1 92.489996 78.78 V 85.53 A 0.53 0.53 0 0 1 91.959996 86.06 H 85.049997 A 0.53 0.53 0 0 1 84.519997 85.53 V 78.78 A 0.53 0.53 0 0 1 85.049997 78.25 Z" class="cls-6" style="fill: rgb(200, 225, 246);"/><path class="cls-7" d="M103.79,93.87a.53.53,0,0,0-.53-.53H96.35a.53.53,0,0,0-.53.53V95h8Z" transform="translate(-11.3 -15.09)" style="fill: rgb(202, 204, 215);"/><path d="M 85.82 81.260002 H 91.19 V 81.770002 H 85.82 V 81.260002 Z" class="cls-2" style="fill: rgb(255, 255, 255);"/><path d="M 85.82 82.589996 H 91.19 V 83.099996 H 85.82 V 82.589996 Z" class="cls-2" style="fill: rgb(255, 255, 255);"/><path d="M 85.82 83.919998 H 91.19 V 84.429998 H 85.82 V 83.919998 Z" class="cls-2" style="fill: rgb(255, 255, 255);"/><path d="M 84.219997 93.440002 H 85.009997 A 0.59 0.59 0 0 1 85.599997 94.030002 V 94.820002 A 0.59 0.59 0 0 1 85.009997 95.410002 H 84.219997 A 0.59 0.59 0 0 1 83.629997 94.820002 V 94.030002 A 0.59 0.59 0 0 1 84.219997 93.440002 Z" class="cls-7" style="fill: rgb(202, 204, 215);"/><path d="M 86.700001 93.440002 H 87.490001 A 0.59 0.59 0 0 1 88.080001 94.030002 V 94.820002 A 0.59 0.59 0 0 1 87.490001 95.410002 H 86.700001 A 0.59 0.59 0 0 1 86.110001 94.820002 V 94.030002 A 0.59 0.59 0 0 1 86.700001 93.440002 Z" class="cls-7" style="fill: rgb(202, 204, 215);"/><path d="M 89.170002 93.440002 H 89.960002 A 0.59 0.59 0 0 1 90.550002 94.030002 V 94.820002 A 0.59 0.59 0 0 1 89.960002 95.410002 H 89.170002 A 0.59 0.59 0 0 1 88.580002 94.820002 V 94.030002 A 0.59 0.59 0 0 1 89.170002 93.440002 Z" class="cls-7" style="fill: rgb(202, 204, 215);"/><path d="M 91.640003 93.440002 H 92.430003 A 0.59 0.59 0 0 1 93.020003 94.030002 V 94.820002 A 0.59 0.59 0 0 1 92.430003 95.410002 H 91.640003 A 0.59 0.59 0 0 1 91.050003 94.820002 V 94.030002 A 0.59 0.59 0 0 1 91.640003 93.440002 Z" class="cls-7" style="fill: rgb(202, 204, 215);"/><path class="cls-27" d="M79.27,95.43V69.32A7.25,7.25,0,0,0,72,62.09H70.62a7.25,7.25,0,0,0-7.23,7.23V95.43Z" transform="translate(-11.3 -15.09)" style="fill: rgb(0, 213, 124); fill-rule: evenodd;"/><path class="cls-28" d="M71.35,87.43h.11l.4-1.7-.17,1.75.1,0L73,86.24l-1,1.42a.33.33,0,0,1,.06.1l1.68-.51L72.1,88a.45.45,0,0,1,0,.11l1.71.41-1.75-.18s0,.07,0,.1l1.27,1.2-1.42-1-.09.07.5,1.68-.72-1.61h-.11l-.4,1.71.18-1.75-.11,0-1.2,1.28,1-1.43a.47.47,0,0,1-.06-.09l-1.68.5,1.6-.72a.37.37,0,0,1,0-.11l-1.71-.4,1.75.18,0-.1-1.27-1.21,1.42,1,.09-.06-.5-1.68Z" transform="translate(-11.3 -15.09)" style="fill: rgb(255, 255, 255); fill-rule: evenodd;"/><path class="cls-28" d="M65.86,91H66l.41-1.7L66.2,91l.1,0,1.2-1.27-1,1.42a.36.36,0,0,1,.07.1l1.68-.51-1.61.72a.45.45,0,0,1,0,.11l1.71.41-1.75-.18,0,.1,1.28,1.2-1.43-1-.09.07.5,1.68-.71-1.61H66L65.56,94l.18-1.75a.31.31,0,0,1-.1,0l-1.21,1.28,1-1.43-.06-.09-1.68.5,1.6-.72a.4.4,0,0,1,0-.11l-1.71-.4,1.75.18a.31.31,0,0,1,0-.1l-1.28-1.21,1.42,1,.1-.06-.51-1.68Z" transform="translate(-11.3 -15.09)" style="fill: rgb(255, 255, 255); fill-rule: evenodd;"/><path class="cls-28" d="M76.54,91h.11l.4-1.7L76.88,91l.1,0,1.2-1.27-1,1.42a.33.33,0,0,1,.06.1l1.68-.51-1.6.72a.45.45,0,0,1,0,.11L79,92l-1.75-.18s0,.07-.05.1l1.28,1.2-1.43-1-.09.07.5,1.68-.72-1.61h-.11L76.24,94l.18-1.75-.11,0-1.2,1.28,1-1.43-.06-.09-1.68.5L76,91.7a.37.37,0,0,1,0-.11l-1.7-.4,1.74.18,0-.1-1.27-1.21,1.42,1,.09-.06-.5-1.68Z" transform="translate(-11.3 -15.09)" style="fill: rgb(255, 255, 255); fill-rule: evenodd;"/><path class="cls-28" d="M71.35,65.86h.11l.4-1.71-.17,1.75.1,0L73,64.67l-1,1.42a.33.33,0,0,1,.06.1l1.68-.51-1.6.72a.49.49,0,0,1,0,.12l1.71.4-1.75-.18s0,.07,0,.1L73.29,68l-1.42-1-.09.07.5,1.68-.72-1.61h-.11l-.4,1.71.18-1.75-.11-.05-1.2,1.28,1-1.43a.28.28,0,0,1-.06-.09l-1.68.51,1.6-.72a.49.49,0,0,1,0-.12l-1.71-.4,1.75.18a.93.93,0,0,1,0-.1L69.62,65,71,66l.09-.06-.5-1.68Z" transform="translate(-11.3 -15.09)" style="fill: rgb(255, 255, 255); fill-rule: evenodd;"/><path class="cls-28" d="M71.35,80.42h.11l.4-1.71-.17,1.75.1,0L73,79.22l-1,1.43a.47.47,0,0,1,.06.09l1.68-.5L72.1,81a.37.37,0,0,1,0,.11l1.71.4-1.75-.18a.93.93,0,0,1,0,.1l1.27,1.21-1.42-1-.09.06.5,1.68-.72-1.6h-.11l-.4,1.7.18-1.75-.11,0-1.2,1.27,1-1.42a.33.33,0,0,1-.06-.1l-1.68.51,1.6-.72a.45.45,0,0,1,0-.11l-1.71-.41,1.75.18,0-.1-1.27-1.2,1.42,1,.09-.07-.5-1.68Z" transform="translate(-11.3 -15.09)" style="fill: rgb(255, 255, 255); fill-rule: evenodd;"/><path class="cls-28" d="M71.35,73.22h.11l.4-1.71-.17,1.75.1,0L73,72l-1,1.43a.28.28,0,0,1,.06.09L73.7,73l-1.6.72a.49.49,0,0,1,0,.12l1.71.4-1.75-.18a.93.93,0,0,1,0,.1l1.27,1.2-1.42-1-.09.06.5,1.68-.72-1.6h-.11l-.4,1.71.18-1.75-.11,0-1.2,1.28,1-1.42a.33.33,0,0,1-.06-.1l-1.68.51,1.6-.72a.49.49,0,0,1,0-.12l-1.71-.4,1.75.18,0-.1-1.27-1.2,1.42,1,.09-.07-.5-1.68Z" transform="translate(-11.3 -15.09)" style="fill: rgb(255, 255, 255); fill-rule: evenodd;"/><path class="cls-28" d="M65.86,69.38H66l.41-1.71-.18,1.75.1,0,1.2-1.28-1,1.42a.36.36,0,0,1,.07.1l1.68-.51-1.61.72a.49.49,0,0,1,0,.12l1.71.4-1.75-.18,0,.1,1.28,1.2-1.43-1-.09.07.5,1.68-.71-1.61H66l-.4,1.71.18-1.75-.1,0-1.21,1.28,1-1.43a.7.7,0,0,1-.06-.09l-1.68.51,1.6-.72a.48.48,0,0,1,0-.12l-1.71-.4,1.75.18a.31.31,0,0,1,0-.1l-1.28-1.2,1.42,1,.1-.06-.51-1.68Z" transform="translate(-11.3 -15.09)" style="fill: rgb(255, 255, 255); fill-rule: evenodd;"/><path class="cls-28" d="M65.86,83.94H66l.41-1.71L66.2,84l.1,0,1.2-1.28-1,1.43.07.09,1.68-.5-1.61.72a.37.37,0,0,1,0,.11l1.71.4-1.75-.18a.31.31,0,0,1,0,.1l1.28,1.21-1.43-1-.09.06.5,1.68-.71-1.6H66l-.4,1.7.18-1.75-.1,0-1.21,1.27,1-1.42-.06-.1-1.68.51,1.6-.72a.4.4,0,0,1,0-.11l-1.71-.41,1.75.18,0-.1-1.28-1.2,1.42,1,.1-.07-.51-1.68Z" transform="translate(-11.3 -15.09)" style="fill: rgb(255, 255, 255); fill-rule: evenodd;"/><path class="cls-28" d="M65.86,76.74H66L66.38,75l-.18,1.75.1,0,1.2-1.28-1,1.43a.31.31,0,0,1,.07.09l1.68-.51-1.61.72a.49.49,0,0,1,0,.12l1.71.4-1.75-.18a.31.31,0,0,1,0,.1l1.28,1.2-1.43-1-.09.06.5,1.68L66.08,78H66l-.4,1.71L65.74,78a.31.31,0,0,1-.1,0l-1.21,1.28,1-1.42-.06-.1-1.68.51,1.6-.72a.48.48,0,0,1,0-.12L63.61,77l1.75.18a.31.31,0,0,1,0-.1l-1.28-1.2,1.42,1,.1-.07-.51-1.68Z" transform="translate(-11.3 -15.09)" style="fill: rgb(255, 255, 255); fill-rule: evenodd;"/><path class="cls-28" d="M76.54,69.38h.11l.4-1.71-.17,1.75.1,0,1.2-1.28-1,1.42a.33.33,0,0,1,.06.1l1.68-.51-1.6.72a.49.49,0,0,1,0,.12l1.71.4-1.75-.18s0,.07-.05.1l1.28,1.2-1.43-1L77,70.6l.5,1.68-.72-1.61h-.11l-.4,1.71.18-1.75-.11,0-1.2,1.28,1-1.43a.7.7,0,0,1-.06-.09l-1.68.51,1.6-.72A.49.49,0,0,1,76,70l-1.7-.4L76,69.8l0-.1-1.27-1.2,1.42,1,.09-.06-.5-1.68Z" transform="translate(-11.3 -15.09)" style="fill: rgb(255, 255, 255); fill-rule: evenodd;"/><path class="cls-28" d="M76.54,83.94h.11l.4-1.71L76.88,84l.1,0,1.2-1.28-1,1.43a.47.47,0,0,1,.06.09l1.68-.5-1.6.72a.37.37,0,0,1,0,.11L79,85l-1.75-.18a.93.93,0,0,1-.05.1l1.28,1.21-1.43-1-.09.06.5,1.68-.72-1.6h-.11l-.4,1.7.18-1.75-.11,0-1.2,1.27,1-1.42-.06-.1-1.68.51,1.6-.72a.45.45,0,0,1,0-.11l-1.7-.41,1.74.18,0-.1-1.27-1.2,1.42,1,.09-.07-.5-1.68Z" transform="translate(-11.3 -15.09)" style="fill: rgb(255, 255, 255); fill-rule: evenodd;"/><path class="cls-28" d="M76.54,76.74h.11l.4-1.71-.17,1.75.1,0,1.2-1.28-1,1.43a.28.28,0,0,1,.06.09l1.68-.51-1.6.72a.49.49,0,0,1,0,.12l1.71.4-1.75-.18a.93.93,0,0,1-.05.1l1.28,1.2-1.43-1L77,78l.5,1.68L76.75,78h-.11l-.4,1.71L76.42,78l-.11,0-1.2,1.28,1-1.42-.06-.1-1.68.51,1.6-.72a.49.49,0,0,1,0-.12l-1.7-.4,1.74.18,0-.1-1.27-1.2,1.42,1,.09-.07-.5-1.68Z" transform="translate(-11.3 -15.09)" style="fill: rgb(255, 255, 255); fill-rule: evenodd;"/><path class="cls-13" d="M58.61,96.06v14.87c0,3.49,2.34,6.32,5.22,6.32H78.45c2.88,0,5.22-2.83,5.22-6.32V96.06q0-.32,0-.63h-25Q58.61,95.75,58.61,96.06Z" transform="translate(-11.3 -15.09)" style="fill: rgb(253, 170, 149);"/><path d="M 47.310001 86.470001 H 72.370001 V 88.930001 H 47.310001 V 86.470001 Z" class="cls-2" style="fill: rgb(255, 255, 255);"/><path d="M 47.310001 90.019997 H 72.370001 V 92.479997 H 47.310001 V 90.019997 Z" class="cls-2" style="fill: rgb(255, 255, 255);"/><path d="M 47.310001 83.360001 H 72.370001 V 86.48 H 47.310001 V 83.360001 Z" class="cls-5" style="fill: rgb(29, 27, 55); opacity: 0.1;"/><path class="cls-2" d="M119.42,110.23c-5.4,0-9.78,3-9.78,6.82h19.55C129.19,113.28,124.82,110.23,119.42,110.23Z" transform="translate(-11.3 -15.09)" style="fill: rgb(255, 255, 255);"/><path class="cls-29" d="M119.42,112.43a.66.66,0,0,0,.65-.65v-1.53l-.65,0-.66,0v1.53A.66.66,0,0,0,119.42,112.43Z" transform="translate(-11.3 -15.09)" style="fill: rgb(232, 235, 247);"/><path class="cls-30" d="M208.07,117.05V115.8c0-1-1-1.74-2.33-1.74H135.16c-1.29,0-2.33.78-2.33,1.74v1.25Z" transform="translate(-11.3 -15.09)" style="fill: rgb(153, 158, 163);"/><path class="cls-3" d="M315.49,95.05v12.22h8.73a67.58,67.58,0,0,0-2.58-12.22Z" transform="translate(-11.3 -15.09)" style="fill: rgb(253, 170, 149); opacity: 0.2;"/><path d="M 277.42999267578125 79.94999694824219 L 277.42999267578125 92.16999816894531 L 289.6400146484375 92.16999816894531 L 301.8599853515625 92.16999816894531 L 301.8599853515625 79.94999694824219 L 289.6400146484375 79.94999694824219 L 277.42999267578125 79.94999694824219 Z" class="cls-3" style="fill: rgb(253, 170, 149); opacity: 0.2;"/><path class="cls-3" d="M301.5,81.17V93.39h19.6a68.8,68.8,0,0,0-5.51-12.22H301.5Z" transform="translate(-11.3 -15.09)" style="fill: rgb(253, 170, 149); opacity: 0.2;"/><path class="cls-3" d="M301.5,108.92v12.22h23c.14-1.94.22-3.9.22-5.87,0-2.13-.11-4.25-.3-6.35H301.5Z" transform="translate(-11.3 -15.09)" style="fill: rgb(253, 170, 149); opacity: 0.2;"/><path class="cls-3" d="M35.73,153.61V143.47H17.15a72.64,72.64,0,0,0,5.46,10.14H35.73Z" transform="translate(-11.3 -15.09)" style="fill: rgb(253, 170, 149); opacity: 0.2;"/><path class="cls-3" d="M47.54,165.09V154.94H27.26V160c1.37,1.72,2.84,3.41,4.39,5.06H47.54Z" transform="translate(-11.3 -15.09)" style="fill: rgb(253, 170, 149); opacity: 0.2;"/><path class="cls-3" d="M35.73,80.57V70.43H27.32a75.62,75.62,0,0,0-6.9,10.14H35.73Z" transform="translate(-11.3 -15.09)" style="fill: rgb(253, 170, 149); opacity: 0.2;"/><path class="cls-3" d="M25.59,92V81.9H19.67a70.18,70.18,0,0,0-4.22,9.44V92Z" transform="translate(-11.3 -15.09)" style="fill: rgb(253, 170, 149); opacity: 0.2;"/><g transform="matrix(-0.016606828197836883, 0.05619973316788675, -0.05619973316788675, -0.016606828197836883, 257.26647949218756, 81.03444671630861)"><g id="g-1" transform="matrix(1, 0, 0, 1, 0, 0)">
	<g id="g-2">
		<path class="st0" d="M355.7,185.2c20.2,7.9,30.5,31.1,22.6,51.2c-8,20.1-30.7,29.9-50.8,22c-2.3-0.9-4.4-2.1-6.5-3.4&#10;&#9;&#9;&#9;c11.8,25.2,41.9,36.1,67.1,24.2c11.6-5.4,20.7-15.1,25.4-27c10-25.9-2.9-54.9-28.7-64.9C375.5,183.8,365.4,183,355.7,185.2z" style="fill: rgb(174, 92, 177);"/>
	</g>
</g></g></svg>